<svg xmlns="http://www.w3.org/2000/svg" width="520" height="150" fill="none" viewBox="0 0 520 150">
  <g clip-path="url(#a)">
    <mask id="b" width="130" height="130" x="0" y="10" maskUnits="userSpaceOnUse" style="mask-type:luminance">
      <path fill="#fff" d="M0 10h130v130H0V10Z"/>
    </mask>
    <g mask="url(#b)">
      <path fill="#66635B" d="M27.517 10h5.86v5.79h5.363V10h5.86v17.528h-5.86v-5.866h-5.363v5.866h-5.855L27.517 10Zm24.786 5.812h-5.156V10h16.18v5.812h-5.163v11.716h-5.86V15.812ZM65.893 10h6.11l3.76 6.159L79.517 10h6.11v17.528h-5.834V18.84l-4.03 6.235h-.103l-4.035-6.23v8.683h-5.731V10Zm22.648 0h5.866v11.738h8.233v5.796h-14.1V10Z"/>
      <path fill="#66635B" fill-rule="evenodd" d="M27.332 129.557 16.25 35.551h97.5l-11.088 93.995L64.946 140l-37.614-10.443Zm22.41-51.459L48.69 66.29h44.12l1.028-11.527H36.097l3.109 34.867h39.959l-1.338 14.951-12.86 3.477h-.01l-12.838-3.467-.823-9.192H39.715l1.614 18.103 23.617 6.554 23.654-6.554 2.882-32.305.282-3.093-42.023-.006Z" clip-rule="evenodd"/>
    </g>
  </g>
  <g clip-path="url(#c)">
    <path fill="#66635B" d="M170.636 10H184.6v5.84h-8.125v5.838h8.125v5.84h-13.964V10Zm16.753 0h13.97v5.08h-8.125v1.014h8.125v11.678h-13.97v-5.33h8.125v-1.018h-8.125V10Zm16.765 0h13.959v5.08h-8.125v1.014h8.125v11.678h-13.959v-5.33h8.125v-1.018h-8.125V10Z"/>
    <path fill="#66635B" fill-rule="evenodd" d="m194.951 140-37.613-10.443-11.088-94.006h97.5l-11.082 93.995L194.951 140Zm-26.78-61.896 1.035 11.526h39.959l-1.338 14.951-12.859 3.477h-.011l-12.838-3.467-.823-9.192H169.72l1.615 18.103 23.616 6.554 23.655-6.554 2.881-32.305.282-3.093 2.08-23.34h-57.752l1.05 11.532h44.07l-1.05 11.808h-41.996Z" clip-rule="evenodd"/>
  </g>
  <path fill="#66635B" d="M320.564 21.987a9.096 9.096 0 0 1 8.867 0l40.511 22.886a8.339 8.339 0 0 1 4.214 7.177v45.906a8.449 8.449 0 0 1-4.528 7.334l-40.365 22.772a8.826 8.826 0 0 1-8.965-.25l-12.111-6.998a7.045 7.045 0 0 1-2.34-1.684c.514-.694 1.435-.78 2.182-1.084a27.056 27.056 0 0 0 4.783-2.231 1.137 1.137 0 0 1 1.246.075c3.445 1.977 6.863 4.014 10.33 5.975.736.428 1.484-.141 2.112-.488 13.21-7.467 26.421-14.924 39.634-22.37a1.3 1.3 0 0 0 .72-1.29c.011-15.14.013-30.284.006-45.43a1.413 1.413 0 0 0-.845-1.414A69672.189 69672.189 0 0 1 325.791 28.2a1.41 1.41 0 0 0-1.582 0 54936.33 54936.33 0 0 0-40.213 22.68 1.412 1.412 0 0 0-.851 1.408v45.43a1.303 1.303 0 0 0 .732 1.273 2799.03 2799.03 0 0 0 10.741 6.066 8.286 8.286 0 0 0 6.716.899 5.09 5.09 0 0 0 3.299-4.783c.016-15.058-.011-30.116.011-45.164a1.144 1.144 0 0 1 .359-.855 1.132 1.132 0 0 1 .876-.304 227.77 227.77 0 0 1 5.162.005 1.196 1.196 0 0 1 1.095.88c.043.162.052.33.026.496-.005 15.15.017 30.301-.01 45.446a11.54 11.54 0 0 1-5.39 10.411 16.583 16.583 0 0 1-14.831-.406c-3.938-1.967-7.692-4.28-11.554-6.392a8.4 8.4 0 0 1-4.523-7.334V52.05a8.347 8.347 0 0 1 4.355-7.27 87880.062 87880.062 0 0 0 40.36-22.793h-.005Z"/>
  <path fill="#66635B" d="M332.302 53.783a31.958 31.958 0 0 1 17.431 2.67 13.163 13.163 0 0 1 6.429 11.408 1.246 1.246 0 0 1-1.338.91c-1.706 0-3.407.021-5.108-.011a1.318 1.318 0 0 1-1.235-1.278 7.796 7.796 0 0 0-3.721-5.374 22.21 22.21 0 0 0-10.205-1.462 13.865 13.865 0 0 0-7.307 1.82 4.626 4.626 0 0 0-1.538 5.173c.547 1.3 2.047 1.717 3.277 2.101 7.074 1.853 14.571 1.669 21.504 4.1a10.133 10.133 0 0 1 6.662 5.932 12.667 12.667 0 0 1-2.145 12.08 16.952 16.952 0 0 1-9.089 4.901 43.334 43.334 0 0 1-13.72.585 21.665 21.665 0 0 1-12.068-4.544 12.675 12.675 0 0 1-4.079-9.989 1.136 1.136 0 0 1 1.251-1.007 243.85 243.85 0 0 1 5.146 0 1.189 1.189 0 0 1 1.224 1.192 7.81 7.81 0 0 0 2.903 5.47 21.995 21.995 0 0 0 11.847 2.156 16.09 16.09 0 0 0 9.717-2.378 5.37 5.37 0 0 0 1.463-5.124c-.423-1.517-2.005-2.22-3.364-2.681-6.988-2.21-14.56-1.409-21.477-3.9a10.454 10.454 0 0 1-6.598-5.758 11.757 11.757 0 0 1 2.351-12.253 18.96 18.96 0 0 1 11.787-4.74Zm134.777 21.231a12.112 12.112 0 0 1-12.106 12.112 12.11 12.11 0 1 1 8.559-20.676 12.113 12.113 0 0 1 3.547 8.564Zm14.344-57.904c-7.291 0-16.83 5.2-26.477 14.202-9.642-8.953-19.186-14.094-26.471-14.094-2.221 0-4.242.504-5.991 1.506-7.448 4.296-9.116 17.68-5.271 34.477C400.725 58.293 390 66.434 390 75.014c0 8.613 10.779 16.776 27.316 21.83-3.813 16.861-2.112 30.268 5.352 34.558 1.733 1.013 3.737 1.489 5.969 1.489 7.285 0 16.83-5.2 26.477-14.213 9.641 8.959 19.186 14.099 26.471 14.099 2.221 0 4.241-.487 5.991-1.489 7.442-4.29 9.116-17.675 5.27-34.477C509.275 91.762 520 83.605 520 75.014c0-8.612-10.779-16.775-27.316-21.84 3.813-16.846 2.112-30.263-5.352-34.558a11.735 11.735 0 0 0-5.909-1.506Zm-.028 5.904v.033c1.219 0 2.2.238 3.023.688 3.607 2.069 5.173 9.94 3.954 20.063-.292 2.491-.769 5.119-1.354 7.8a127.27 127.27 0 0 0-16.83-2.893 129.928 129.928 0 0 0-11.023-13.254c8.624-8.017 16.722-12.415 22.236-12.431l-.006-.006Zm-52.92.108c5.481 0 13.617 4.377 22.262 12.35A124.561 124.561 0 0 0 439.795 48.7a124.631 124.631 0 0 0-16.862 2.914 81.151 81.151 0 0 1-1.375-7.692c-1.246-10.118.292-17.983 3.867-20.08 1.029-.487 2.167-.692 3.05-.72Zm26.444 16.521c2.47 2.542 4.925 5.366 7.366 8.472-2.383-.108-4.82-.184-7.285-.184-2.495-.004-4.951.058-7.367.184a102.836 102.836 0 0 1 7.286-8.472ZM455 53.867c4.008 0 8 .185 11.927.504a143.962 143.962 0 0 1 6.408 10.075c2.012 3.47 3.85 6.984 5.515 10.541a147.784 147.784 0 0 1-5.487 10.563c-2.059 3.575-4.188 6.976-6.392 10.129a138.67 138.67 0 0 1-23.898.027 146.094 146.094 0 0 1-6.408-10.075 135.758 135.758 0 0 1-5.515-10.541 135.675 135.675 0 0 1 5.487-10.584c2.059-3.575 4.188-6.966 6.392-10.119a135.53 135.53 0 0 1 11.971-.53v.01Zm-19.69 1.376c-1.3 2.042-2.6 4.133-3.813 6.284a140.674 140.674 0 0 0-3.44 6.359 112.15 112.15 0 0 1-3.661-10.546 132.252 132.252 0 0 1 10.914-2.097Zm39.325 0c3.77.553 7.392 1.252 10.866 2.096-.975 3.424-2.193 6.945-3.575 10.47a140.673 140.673 0 0 0-7.285-12.566h-.006Zm16.592 3.657a82.615 82.615 0 0 1 7.448 2.697c9.381 4.008 15.448 9.252 15.448 13.412-.027 4.16-6.094 9.425-15.476 13.406-2.275.975-4.766 1.852-7.339 2.67a130.145 130.145 0 0 0-5.958-16.141c2.437-5.51 4.387-10.888 5.877-16.055v.01Zm-72.557.021c1.506 5.2 3.494 10.6 5.959 16.142a124.637 124.637 0 0 0-5.883 16.055 77 77 0 0 1-7.421-2.709c-9.381-3.992-15.448-9.24-15.448-13.4s6.067-9.436 15.448-13.412c2.275-.975 4.767-1.852 7.345-2.676Zm63.256 23.184a113.333 113.333 0 0 1 3.662 10.551 113.07 113.07 0 0 1-10.92 2.113 140.75 140.75 0 0 0 7.258-12.665Zm-53.869.108a123.095 123.095 0 0 0 3.467 6.364 174.692 174.692 0 0 0 3.819 6.192 119.218 119.218 0 0 1-10.866-2.091c.975-3.413 2.199-6.944 3.575-10.47l.005.005Zm59.01 16.18c.606 2.67 1.083 5.243 1.375 7.707 1.246 10.119-.292 17.984-3.867 20.085-.796.488-1.831.694-3.05.694-5.481 0-13.617-4.372-22.262-12.35 3.716-3.9 7.421-8.32 10.942-13.217 5.996-.639 11.667-1.62 16.862-2.92Zm-64.08.054c5.201 1.267 10.866 2.248 16.83 2.881 3.575 4.902 7.286 9.355 11.023 13.249-8.64 8.033-16.748 12.432-22.263 12.432a6.499 6.499 0 0 1-2.995-.715c-3.607-2.059-5.173-9.934-3.954-20.058.292-2.492.775-5.114 1.359-7.79Zm24.7 3.466c2.387.116 4.816.177 7.286.184 2.495.004 4.951-.057 7.367-.184a103.594 103.594 0 0 1-7.286 8.477c-2.47-2.549-4.925-5.375-7.367-8.477Z"/>
  <defs>
    <clipPath id="a">
      <path fill="#fff" d="M0 10h130v130H0z"/>
    </clipPath>
    <clipPath id="c">
      <path fill="#fff" d="M130 10h130v130H130z"/>
    </clipPath>
  </defs>
</svg>
